# xmcd CD database file
#
# Track frame offsets:
#	150
#	33153
#	51730
#	90741
#	127434
#	147584
#	179745
#	193657
#	232390
#	270176
#	305133
#
# Disc length: 4444 seconds
#
# Revision: 0
# Processed by: cddbd v1.5PL3 Copyright (c) Steve Scherf et al.
# Submitted via: CDex 1.60beta1
#
DISCID=b5115a0b
DTITLE=Warren Vache Jr./Dick Wellstood - Jazz It's a Wonderful Sound
DYEAR=2002
DGENRE=Jazz
TTITLE0=Undecided
TTITLE1=Smoke Rings
TTITLE2=It's a Wonderful World
TTITLE3=Rose of Washington Square
TTITLE4=Sweet Lorraine
TTITLE5=Rose Room
TTITLE6=Snowy Morning Blues
TTITLE7=Baby, Won't You Please Come Home?
TTITLE8=Exactly Like You  
TTITLE9=Honeysuckle Rose
TTITLE10=At the Jazz Band Ball
EXTD=YEAR: 2002
EXTT0=
EXTT1=
EXTT2=
EXTT3=
EXTT4=
EXTT5=
EXTT6=
EXTT7=
EXTT8=
EXTT9=
EXTT10=
PLAYORDER=
